HIERARCHY
ROOT hip
{
  OFFSET 0 0 0
  CHANNELS 6 Xposition Yposition Zposition Zrotation Yrotation Xrotation
  JOINT abdomen
  {
    OFFSET 0 20.6881 -0.73152
    CHANNELS 3 Zrotation Xrotation Yrotation
    JOINT chest
    {
      OFFSET 0 11.7043 -0.48768
      CHANNELS 3 Zrotation Xrotation Yrotation
      JOINT neck
      {
        OFFSET 0 22.1894 -2.19456
        CHANNELS 3 Zrotation Xrotation Yrotation
        JOINT head
        {
          OFFSET -0.24384 7.07133 1.2192
          CHANNELS 3 Zrotation Xrotation Yrotation
          JOINT leftEye
          {
            OFFSET 4.14528 8.04674 8.04672
            CHANNELS 3 Zrotation Xrotation Yrotation
            End Site
            {
              OFFSET 1 0 0
            }
          }
          JOINT rightEye
          {
            OFFSET -3.6576 8.04674 8.04672
            CHANNELS 3 Zrotation Xrotation Yrotation
            End Site
            {
              OFFSET 1 0 0
            }
          }
        }
      }
      JOINT rCollar
      {
        OFFSET -2.68224 19.2634 -4.8768
        CHANNELS 3 Zrotation Xrotation Yrotation
        JOINT rShldr
        {
          OFFSET -8.77824 -1.95073 1.46304
          CHANNELS 3 Zrotation Xrotation Yrotation
          JOINT rForeArm
          {
            OFFSET -28.1742 -1.7115 0.48768
            CHANNELS 3 Zrotation Xrotation Yrotation
            JOINT rHand
            {
              OFFSET -22.5879 0.773209 7.07136
              CHANNELS 3 Zrotation Xrotation Yrotation
              JOINT rThumb1
              {
                OFFSET -1.2192 -0.487915 3.41376
                CHANNELS 3 Zrotation Xrotation Yrotation
                JOINT rThumb2
                {
                  OFFSET -3.37035 -0.52449 3.41376
                  CHANNELS 3 Zrotation Xrotation Yrotation
                  End Site
                  {
                    OFFSET -1.78271 -1.18214 1.43049
                  }
                }
              }
              JOINT rIndex1
              {
                OFFSET -7.75947 0.938293 5.60832
                CHANNELS 3 Zrotation Xrotation Yrotation
                JOINT rIndex2
                {
                  OFFSET -2.54057 -0.884171 1.56538
                  CHANNELS 3 Zrotation Xrotation Yrotation
                  End Site
                  {
                    OFFSET -1.62519 -0.234802 1.16502
                  }
                }
              }
              JOINT rMid1
              {
                OFFSET -8.24714 1.18213 3.41376
                CHANNELS 3 Zrotation Xrotation Yrotation
                JOINT rMid2
                {
                  OFFSET -3.10165 -0.590103 1.0647
                  CHANNELS 3 Zrotation Xrotation Yrotation
                  End Site
                  {
                    OFFSET -2.48547 -0.328903 0.83742
                  }
                }
              }
              JOINT rRing1
              {
                OFFSET -8.82822 0.546677 1.51678
                CHANNELS 3 Zrotation Xrotation Yrotation
                JOINT rRing2
                {
                  OFFSET -2.60934 -0.819778 -0.0198488
                  CHANNELS 3 Zrotation Xrotation Yrotation
                  End Site
                  {
                    OFFSET -2.33842 -0.294052 0.168128
                  }
                }
              }
              JOINT rPinky1
              {
                OFFSET -8.27202 -0.0477905 -0.4584
                CHANNELS 3 Zrotation Xrotation Yrotation
                JOINT rPinky2
                {
                  OFFSET -1.82734 -0.647385 -0.700984
                  CHANNELS 3 Zrotation Xrotation Yrotation
                  End Site
                  {
                    OFFSET -1.69225 -0.51767 -0.607171
                  }
                }
              }
            }
          }
        }
      }
      JOINT lCollar
      {
        OFFSET 2.68224 19.2634 -4.8768
        CHANNELS 3 Zrotation Xrotation Yrotation
        JOINT lShldr
        {
          OFFSET 8.77824 -1.95073 1.46304
          CHANNELS 3 Zrotation Xrotation Yrotation
          JOINT lForeArm
          {
            OFFSET 28.1742 -1.7115 0.48768
            CHANNELS 3 Zrotation Xrotation Yrotation
            JOINT lHand
            {
              OFFSET 22.5879 0.773209 7.07136
              CHANNELS 3 Zrotation Xrotation Yrotation
              JOINT lThumb1
              {
                OFFSET 1.2192 -0.487915 3.41376
                CHANNELS 3 Zrotation Xrotation Yrotation
                JOINT lThumb2
                {
                  OFFSET 3.37035 -0.52449 3.41376
                  CHANNELS 3 Zrotation Xrotation Yrotation
                  End Site
                  {
                    OFFSET 1.78271 -1.18214 1.43049
                  }
                }
              }
              JOINT lIndex1
              {
                OFFSET 7.75947 0.938293 5.60832
                CHANNELS 3 Zrotation Xrotation Yrotation
                JOINT lIndex2
                {
                  OFFSET 2.54057 -0.884171 1.56538
                  CHANNELS 3 Zrotation Xrotation Yrotation
                  End Site
                  {
                    OFFSET 1.62519 -0.234802 1.16502
                  }
                }
              }
              JOINT lMid1
              {
                OFFSET 8.24714 1.18213 3.41376
                CHANNELS 3 Zrotation Xrotation Yrotation
                JOINT lMid2
                {
                  OFFSET 3.10165 -0.590103 1.0647
                  CHANNELS 3 Zrotation Xrotation Yrotation
                  End Site
                  {
                    OFFSET 2.48547 -0.328903 0.83742
                  }
                }
              }
              JOINT lRing1
              {
                OFFSET 8.82822 0.546677 1.51678
                CHANNELS 3 Zrotation Xrotation Yrotation
                JOINT lRing2
                {
                  OFFSET 2.60934 -0.819778 -0.0198488
                  CHANNELS 3 Zrotation Xrotation Yrotation
                  End Site
                  {
                    OFFSET 2.33842 -0.294052 0.168128
                  }
                }
              }
              JOINT lPinky1
              {
                OFFSET 8.27202 -0.0477905 -0.4584
                CHANNELS 3 Zrotation Xrotation Yrotation
                JOINT lPinky2
                {
                  OFFSET 1.82734 -0.647385 -0.700984
                  CHANNELS 3 Zrotation Xrotation Yrotation
                  End Site
                  {
                    OFFSET 1.69225 -0.51767 -0.607171
                  }
                }
              }
            }
          }
        }
      }
    }
  }
  JOINT rButtock
  {
    OFFSET -8.77824 4.35084 1.2192
    CHANNELS 3 Zrotation Xrotation Yrotation
    JOINT rThigh
    {
      OFFSET 0 -1.70687 -2.19456
      CHANNELS 3 Zrotation Xrotation Yrotation
      JOINT rShin
      {
        OFFSET 0 -36.8199 0.73152
        CHANNELS 3 Zrotation Xrotation Yrotation
        JOINT rFoot
        {
          OFFSET 0.73152 -45.1104 -5.12064
          CHANNELS 3 Zrotation Xrotation Yrotation
          End Site
          {
            OFFSET -1.1221 -3.69964 12.103
          }
        }
      }
    }
  }
  JOINT lButtock
  {
    OFFSET 8.77824 4.35084 1.2192
    CHANNELS 3 Zrotation Xrotation Yrotation
    JOINT lThigh
    {
      OFFSET 0 -1.70687 -2.19456
      CHANNELS 3 Zrotation Xrotation Yrotation
      JOINT lShin
      {
        OFFSET 0 -36.8199 0.73152
        CHANNELS 3 Zrotation Xrotation Yrotation
        JOINT lFoot
        {
          OFFSET -0.73152 -45.1104 -5.12064
          CHANNELS 3 Zrotation Xrotation Yrotation
          End Site
          {
            OFFSET 1.1221 -3.69964 12.103
          }
        }
      }
    }
  }
}
MOTION
Frames:	6
Frame Time:	0.00833333
10.4777 85.1103 -124.975 0.0 0.0 0.0 0.323373 -0.00164673 0.00924266 0.0892394 -0.0025473 0.0154606 1.64784e-15 -2.38542e-15 -5.59082e-17 4.95098e-15 -6.36111e-15 -1.53748e-16 -0.0 0.0 0.0 -0.0 0.0 0.0 7.44147e-16 9.70628e-19 1.49089e-16 2.02514e-14 1.11816e-16 5.96354e-16 2.98127e-13 -8.88567e-14 -6.36111e-15 3.41384e-12 8.64962e-14 -1.01778e-13 8.05107e-12 -8.02979e-15 -2.09917e-13 1.39034e-11 -1.59028e-14 -3.76896e-13 8.05634e-12 -5.56597e-15 -2.19458e-13 7.73091 5.47488 0.417314 8.05138e-12 -7.65321e-15 -2.13097e-13 2.90554 0.965183 0.102902 8.06076e-12 -7.35503e-15 -2.16278e-13 10.2786 0.731801 0.0259123 8.04859e-12 -7.95139e-15 -2.06736e-13 2.22167 -0.733487 -0.20892 8.46185e-16 7.76503e-19 -1.49089e-16 1.39513e-14 1.98785e-16 -1.39149e-15 2.99419e-13 8.82604e-14 -1.59028e-14 3.41082e-12 -9.6336e-14 -8.26944e-14 8.0499e-12 -2.29264e-14 -2.22639e-13 1.39121e-11 -3.49861e-14 -3.7133e-13 8.04322e-12 -1.86858e-14 -2.13097e-13 -7.73091 5.47488 -0.417314 8.04934e-12 -2.26615e-14 -2.19458e-13 -2.90554 0.965183 -0.102902 8.04075e-12 -2.25621e-14 -2.17073e-13 -10.2786 0.731801 -0.0259123 8.05058e-12 -2.22639e-14 -2.22639e-13 -2.22167 -0.733487 0.20892 -2.03217e-16 0.0 -3.88251e-19 0.740126 -3.92202 -0.0606446 -0.00350654 1.55185 -0.0277861 -0.496579 2.36988 0.104837 2.03217e-16 0.0 3.88251e-19 -0.247425 -2.66511 0.0295755 0.00709364 -0.724803 0.0619246 0.492008 3.38958 -0.124979
9.51006 83.1591 -126.55 -4.5341 1.0764 6.6241 2.4175 4.08158 0.557257 -0.654819 -2.69585 0.181583 -0.174236 3.96362 -0.510459 1.1192 -12.4781 -0.58691 -0.0 0.0 0.0 -0.0 0.0 0.0 -1.325e-14 -7.90528e-14 -4.18535e-15 18.8576 12.6793 0.809342 -27.9097 -25.3334 13.3449 0.00212452 -1.02436 -0.143882 3.71579e-10 3.9132e-09 -8.99771e-10 6.4383e-10 6.76954e-09 -1.5541e-09 3.71583e-10 3.9132e-09 -8.99781e-10 7.73091 5.47488 0.417314 3.71578e-10 3.9132e-09 -8.99775e-10 2.90554 0.965183 0.102902 3.71587e-10 3.9132e-09 -8.99776e-10 10.2786 0.731801 0.0259123 3.71575e-10 3.9132e-09 -8.99766e-10 2.22167 -0.733487 -0.20892 -1.32048e-14 -7.90545e-14 -4.42451e-15 -23.5035 11.3084 8.60772 25.7607 -23.5005 -14.1876 -0.102132 -7.09973 0.970361 4.71082e-10 1.19798e-09 9.23503e-10 7.95041e-10 1.99939e-09 1.60627e-09 4.71076e-10 1.19798e-09 9.23512e-10 -7.73091 5.47488 -0.417314 4.71082e-10 1.19798e-09 9.23507e-10 -2.90554 0.965183 -0.102902 4.71075e-10 1.19798e-09 9.23507e-10 -10.2786 0.731801 -0.0259123 4.71083e-10 1.19798e-09 9.23501e-10 -2.22167 -0.733487 0.20892 -2.03217e-16 0.0 -3.88251e-19 4.10111 3.15118 2.6016 0.0405754 4.86644 0.155823 -0.172458 10.8267 -2.21362 2.03217e-16 0.0 3.88251e-19 1.92879 -15.3868 -1.91937 -0.054304 12.6813 -0.174902 0.4661 5.64332 -2.15772
9.55733 83.6339 -123.414 -4.6226 0.8808 6.5541 4.54505 8.38576 1.13748 -1.42163 -5.57029 0.356258 -0.286346 8.19345 -1.05751 2.01144 -25.6551 -1.30084 -0.0 0.0 0.0 -0.0 0.0 0.0 -2.8407e-14 -1.64691e-13 -9.405e-15 38.3675 26.0556 1.80371 -39.9624 -46.8155 37.7168 -0.00124085 -2.11447 -0.297156 7.64947e-10 8.09472e-09 -1.86244e-09 1.32548e-09 1.40035e-08 -3.21682e-09 7.6495e-10 8.09472e-09 -1.86245e-09 7.73091 5.47488 0.417314 7.64946e-10 8.09472e-09 -1.86245e-09 2.90554 0.965183 0.102902 7.64954e-10 8.09472e-09 -1.86245e-09 10.2786 0.731801 0.0259123 7.64943e-10 8.09472e-09 -1.86244e-09 2.22167 -0.733487 -0.20892 -2.84224e-14 -1.64695e-13 -9.57894e-15 -52.2709 22.4023 18.8851 36.9049 -42.929 -37.8899 0.059385 -14.6091 2.04848 9.67925e-10 2.49603e-09 1.90511e-09 1.63339e-09 4.16734e-09 3.31367e-09 9.67919e-10 2.49603e-09 1.90512e-09 -7.73091 5.47488 -0.417314 9.67925e-10 2.49604e-09 1.90512e-09 -2.90554 0.965183 -0.102902 9.67921e-10 2.49604e-09 1.90511e-09 -10.2786 0.731801 -0.0259123 9.67926e-10 2.49603e-09 1.90511e-09 -2.22167 -0.733487 0.20892 -2.03217e-16 0.0 -3.88251e-19 6.89707 10.6131 5.50935 0.0655967 8.20371 0.354479 0.994409 19.7474 -4.97584 2.03217e-16 0.0 3.88251e-19 3.13635 -28.859 -4.35122 0.0142146 27.1192 -0.475551 0.617602 8.00142 -4.38694
9.6474 83.8639 -120.906 -4.5081 2.5225 7.1451 6.36679 12.2435 1.68744 -2.09567 -8.08217 0.518374 -0.306908 11.887 -1.5612 2.42239 -37.4163 -2.16469 -0.0 0.0 0.0 -0.0 0.0 0.0 -4.12382e-14 -2.3716e-13 -1.28542e-14 55.2533 38.0033 3.00672 -31.2012 -52.149 73.8956 -0.00907951 -3.073 -0.432198 1.09863e-09 1.17396e-08 -2.69889e-09 1.90368e-09 2.03087e-08 -4.66154e-09 1.09864e-09 1.17396e-08 -2.6989e-09 7.73091 5.47488 0.417314 1.09863e-09 1.17396e-08 -2.6989e-09 2.90554 0.965183 0.102902 1.09864e-09 1.17396e-08 -2.6989e-09 10.2786 0.731801 0.0259123 1.09863e-09 1.17396e-08 -2.69889e-09 2.22167 -0.733487 -0.20892 -4.13068e-14 -2.37165e-13 -1.29754e-14 -81.6736 30.625 29.7991 31.222 -47.8498 -69.5746 0.459558 -21.2738 3.1002 1.39715e-09 3.59399e-09 2.77096e-09 2.3573e-09 5.99823e-09 4.81956e-09 1.39714e-09 3.59399e-09 2.77096e-09 -7.73091 5.47488 -0.417314 1.39715e-09 3.59399e-09 2.77096e-09 -2.90554 0.965183 -0.102902 1.39714e-09 3.594e-09 2.77096e-09 -10.2786 0.731801 -0.0259123 1.39715e-09 3.59399e-09 2.77095e-09 -2.22167 -0.733487 0.20892 -2.03217e-16 0.0 -3.88251e-19 8.78742 17.1374 8.28423 0.063877 11.4952 0.532008 2.75051 27.5564 -7.59832 2.03217e-16 0.0 3.88251e-19 2.97911 -40.618 -7.40037 0.233202 39.4906 -0.823805 0.899931 10.1028 -6.29017
9.69462 84.161 -117.928 -4.7267 2.2597 6.7093 7.58712 14.989 2.13096 -2.57112 -9.68796 0.64471 -0.255658 14.2438 -1.92675 2.30398 -45.653 -3.05264 -0.0 0.0 0.0 -0.0 0.0 0.0 -4.82545e-14 -2.76706e-13 -1.18774e-14 66.5412 46.4097 4.22482 -26.3119 -45.6434 94.7944 -0.0168438 -3.70266 -0.521108 1.28312e-09 1.40429e-08 -3.21979e-09 2.22328e-09 2.42919e-08 -5.56125e-09 1.28312e-09 1.40429e-08 -3.2198e-09 7.73091 5.47488 0.417314 1.28311e-09 1.40429e-08 -3.2198e-09 2.90554 0.965183 0.102902 1.28312e-09 1.40429e-08 -3.21979e-09 10.2786 0.731801 0.0259123 1.28311e-09 1.40429e-08 -3.21978e-09 2.22167 -0.733487 -0.20892 -4.8358e-14 -2.76711e-13 -1.19768e-14 -104.158 34.9441 38.3313 27.5052 -42.488 -88.5084 0.896446 -25.8514 3.90461 1.65731e-09 4.19171e-09 3.34739e-09 2.79514e-09 6.98648e-09 5.82168e-09 1.65731e-09 4.19171e-09 3.34739e-09 -7.73091 5.47488 -0.417314 1.65731e-09 4.19172e-09 3.34739e-09 -2.90554 0.965183 -0.102902 1.65731e-09 4.19172e-09 3.34739e-09 -10.2786 0.731801 -0.0259123 1.65731e-09 4.19171e-09 3.34738e-09 -2.22167 -0.733487 0.20892 -2.03217e-16 0.0 -3.88251e-19 9.89675 21.4795 10.3438 0.0372529 14.6726 0.650266 4.11315 32.797 -9.09364 2.03217e-16 0.0 3.88251e-19 1.88252 -48.2744 -10.5732 0.469031 46.6989 -1.09044 1.14556 11.6101 -7.31892
9.6498 84.3066 -115.28 -5.0921 2.7399 7.0514 8.10996 16.1873 2.39221 -2.7789 -10.0163 0.718199 -0.175752 14.6603 -2.0836 1.87446 -48.9379 -3.64188 -0.0 0.0 0.0 -0.0 0.0 0.0 -4.48724e-14 -2.72918e-13 -2.42696e-15 70.6157 49.8926 4.98583 -26.4767 -41.55 99.8712 -0.019764 -3.88442 -0.546821 1.27253e-09 1.48458e-08 -3.3688e-09 2.20472e-09 2.56768e-08 -5.81874e-09 1.27253e-09 1.48458e-08 -3.36881e-09 7.73091 5.47488 0.417314 1.27253e-09 1.48458e-08 -3.3688e-09 2.90554 0.965183 0.102902 1.27254e-09 1.48458e-08 -3.3688e-09 10.2786 0.731801 0.0259123 1.27253e-09 1.48458e-08 -3.36879e-09 2.22167 -0.733487 -0.20892 -4.49905e-14 -2.72921e-13 -2.55508e-15 -113.001 36.3111 41.237 27.4903 -39.044 -93.7802 1.09294 -27.4795 4.2135 1.70855e-09 4.12077e-09 3.60613e-09 2.87874e-09 6.84247e-09 6.2704e-09 1.70855e-09 4.12077e-09 3.60614e-09 -7.73091 5.47488 -0.417314 1.70856e-09 4.12078e-09 3.60614e-09 -2.90554 0.965183 -0.102902 1.70855e-09 4.12078e-09 3.60613e-09 -10.2786 0.731801 -0.0259123 1.70856e-09 4.12077e-09 3.60613e-09 -2.22167 -0.733487 0.20892 -2.03217e-16 0.0 -3.88251e-19 10.7021 22.9858 11.1074 0.000901266 17.516 0.676261 3.80486 34.5324 -8.19095 2.03217e-16 0.0 3.88251e-19 1.41864 -50.3512 -12.543 0.478184 46.4195 -1.0452 1.17902 12.3497 -7.0751
